<?xml version="1.0" encoding="UTF-8"?>
<svg id="Layer_1" xmlns="http://www.w3.org/2000/svg" version="1.1" viewBox="0 0 595.3 595.3">
  <!-- Generator: Adobe Illustrator 29.0.0, SVG Export Plug-In . SVG Version: 2.1.0 Build 186)  -->
  <defs>
    <style>
      .st0, .st1 {
        fill: #fff;
      }

      .st2 {
        opacity: .4;
      }

      .st1 {
        opacity: .3;
      }
    </style>
  </defs>
  <g id="_Слой_1">
    <g class="st2">
      <path class="st1" d="M571.4,61.3c-36.6,32.2-73.2,64.3-109.9,96.5-27.5,24.2-55,48.4-82.6,72.6-23.5,20.6-47,41.3-70.5,61.9-.2-.4-.5-.8-.8-1.1,26.7-28.7,53.4-57.5,80.1-86.2,21.8-23.4,43.6-46.8,65.4-70.2,38.5-41.3,76.9-82.7,115.3-124.1,3.2-3.4,6.2-7,9.4-10.5h-51.7c-6.3,8.4-12.5,16.7-18.8,25.1-33.8,44.6-67.6,89.2-101.5,133.9-33.1,43.7-66.1,87.3-99.2,131-.3-.3-.7-.6-1-.9,1.4-2.3,2.8-4.6,4.2-6.9,25.9-42.5,51.9-85,77.8-127.5,31-50.8,62-101.7,93.1-152.5.4-.6.6-1.4.8-2.1h-39.1c-.3.8-.6,1.6-1,2.3-21.2,44.3-42.5,88.6-63.8,132.9-24.5,51-48.9,101.9-73.4,152.9-.4-.2-.8-.5-1.2-.7,15.1-41.9,30.3-83.8,45.4-125.7,18-50,36.1-99.9,54.1-149.9,1.4-3.9,2.6-7.9,4-11.8h-33c-1.2,5-2.4,10.1-3.6,15.1-10.1,40.4-20.2,80.8-30.4,121.2-11.5,46.1-23.1,92.1-34.6,138.2-1,4.2-2.1,8.3-3.1,12.5-.5-.2-.9-.3-1.4-.4.7-4.9,1.4-9.8,2.1-14.7,2.3-15.5,4.6-30.9,6.8-46.3,2.1-14.3,4.1-28.6,6.2-42.9,2.1-14.4,4.2-28.8,6.3-43.1,2.3-15.4,4.5-30.9,6.8-46.3,2.5-17.4,5.1-34.7,7.6-52.1,2-13.7,4-27.4,6-41.1h-30.7c-.5,13.1-1.1,26.3-1.6,39.4-.8,18.9-1.7,37.7-2.6,56.6-.5,11.2-1,22.4-1.5,33.6-.9,19.4-1.8,38.8-2.7,58.2-.7,14.7-1.3,29.4-2,44.1-.8,18.1-1.7,36.2-2.5,54.3h-1.8c-.4-6.5-.7-13.2-1-19.9-.8-15.9-1.6-31.9-2.5-47.8-.9-16.7-1.8-33.4-2.7-50.1-.7-12.7-1.3-25.4-2-38.1-.9-16.6-1.8-33.1-2.7-49.6-.7-13.2-1.4-26.3-2-39.4-.7-13.8-1.4-27.5-2.1-41.3h-30.2c.7,5.1,1.3,10.3,2.1,15.4,2.7,18,5.4,35.9,8.2,53.9,2.6,16.7,5.2,33.5,7.7,50.2,2.4,15.7,4.8,31.3,7.1,47,2.7,17.8,5.5,35.6,8.2,53.4s5.4,35.6,8.1,53.4c.7,4.4,1.4,8.8,2,13.2-.5,0-1,.2-1.4.4-12.8-49.6-25.5-99.1-38.3-148.7-11.7-45.6-23.5-91.2-35.2-136.7-.1-.4-.1-.9-.2-1.4h-33.5c0,.1.2.3.2.4,13.1,35.6,26.2,71.1,39.3,106.7,18.9,51.4,37.8,102.7,56.8,154.1,3.2,8.7,6.4,17.4,9.5,26.1-.4.2-.8.4-1.2.6-28.2-57.9-56.4-115.8-84.6-173.6-18.3-37.5-36.6-75-54.8-112.5-.3-.6-.6-1.2-1-1.9h-39.6c.5.9,1,1.7,1.6,2.6,13.2,21.3,26.4,42.5,39.5,63.8,32.8,52.9,65.5,105.8,98.3,158.8,13.1,21.2,26.2,42.4,39.4,63.6-.4.3-.7.6-1.1.9-25.5-33.2-51-66.4-76.5-99.6-40.9-53.2-81.7-106.4-122.6-159.6-7.4-9.6-14.7-19.2-22.1-28.8-.4-.5-.8-1.1-1.2-1.7H14.3c.5.7,1,1.5,1.6,2.2,48.6,51.7,97.3,103.4,145.9,155,41.9,44.5,83.8,89.1,125.7,133.6-.3.4-.6.7-.9,1.1-1-.8-2-1.6-2.9-2.5-43-37.3-86-74.6-129.1-112-38.2-33.2-76.4-66.3-114.7-99.5C26.7,66.5,13.3,54.9-.2,43.3v48.8c1.1.7,2.3,1.3,3.3,2,39.6,27.9,79.1,55.7,118.7,83.6,54.7,38.5,109.4,77,164.1,115.5-.2.4-.4.8-.6,1.3-16-9-31.9-17.9-47.9-26.9-75.8-42.6-151.5-85.1-227.3-127.7-3.4-1.9-6.9-3.7-10.4-5.6v37.7c.6.2,1.2.3,1.7.6,46.5,20.1,92.9,40.2,139.4,60.4,48,20.8,96.1,41.7,144.1,62.5-.1.4-.2.9-.3,1.3h-.2c-32.2-10.2-64.3-20.4-96.5-30.5-59.8-18.9-119.6-37.8-179.3-56.7-2.9-.9-5.9-1.7-8.9-2.5v32.1c19,3.9,38.1,7.8,57.1,11.7,42,8.6,84.1,17.3,126.2,25.9,31.6,6.5,63.2,13,94.8,19.5,2.3.5,4.5.9,6.8,1.3,0,.5-.1.9-.1,1.4-94.9-9.5-189.8-19.1-284.7-28.6v30.2h2.8c93.2-.2,186.4-.3,279.6-.5h2.3c0,.5,0,1,.1,1.4-8.5.7-17,1.6-25.4,2.5-12.7,1.3-25.4,2.7-38.1,4-11,1.1-22,2.2-33,3.4-11.2,1.2-22.3,2.4-33.5,3.5-9.8,1-19.6,2-29.3,3-12.6,1.3-25.1,2.6-37.7,4-11.2,1.2-22.3,2.3-33.5,3.4-12.7,1.3-25.4,2.6-38.1,4-5.4.6-10.8,1.2-16.1,1.9v30.7c.6,0,1.2,0,1.8-.1,20.9-4.4,41.8-8.8,62.7-13.1,24.9-5.2,49.8-10.4,74.7-15.6l60.4-12.7c24.9-5.2,49.8-10.4,74.7-15.7,3.5-.8,7.1-1.5,10.6-2.3.1.4.2.9.4,1.3-.2,0-.4.1-.6.2-30.8,9.8-61.6,19.7-92.4,29.5-51.2,16.4-102.5,32.7-153.7,49.1-12.9,4.1-25.8,8.3-38.7,12.5v34.4c.9-.4,1.9-.7,2.8-1.1,8-3.5,16-7,24-10.5,41.9-18.4,83.8-36.7,125.7-55.1,39.1-17.1,78.3-34.3,117.4-51.5,5.2-2.3,10.4-4.6,15.6-6.9.2.4.4.8.5,1.2-26.2,14.9-52.4,29.7-78.7,44.5-43.5,24.6-86.9,49.2-130.4,73.8-25.7,14.5-51.4,29.1-77.1,43.6v42.3c1-.7,2.1-1.3,3.1-2,12.7-9.1,25.5-18.2,38.3-27.2,35.8-25.4,71.5-50.8,107.3-76.1,40.8-29,81.6-58,122.4-87,5.2-3.7,10.4-7.4,15.6-11.1.2.4.5.7.8,1.1-8,7-16,14.1-24.1,21.1-36,31.5-72,62.9-107.9,94.4-48.7,42.6-97.4,85.2-146.1,127.8-3.1,2.7-6.2,5.3-9.4,7.9v36.7h17.9c1.9,0,3.1-.6,4.4-1.9,33.8-36.3,67.7-72.6,101.6-108.9,40.3-43.1,80.6-86.3,120.9-129.4,14.5-15.5,29.1-31.1,43.6-46.6l.9.9c-1.2,1.5-2.4,3.1-3.5,4.7-36.7,48.2-73.4,96.4-110.1,144.6-33,43.3-66,86.7-98.9,130-1.6,2.1-3.1,4.2-4.9,6.6h41.4c1.8,0,2.9-.5,3.8-2.1,17.3-28.3,34.7-56.7,52.1-85,40.5-66,80.9-132,121.4-198,.4.2.7.5,1.1.7-45.7,94.7-91.3,189.4-137.1,284.3h35.2c34.4-94.6,68.8-189.2,103.1-283.8.4.2.8.3,1.2.4-1.8,7.1-3.6,14.3-5.4,21.5-11.8,46.8-23.7,93.5-35.5,140.3-8.8,34.9-17.7,69.8-26.5,104.7l-4.2,16.8h31c1.5-10.4,3-20.6,4.5-30.9,2.9-19.2,5.8-38.4,8.6-57.6,3-20.4,6-40.7,9-61,3.8-25.5,7.6-51.1,11.5-76.6,2.8-18.9,5.7-37.9,8.5-56.8.4,0,.8.1,1.3.1-.2,3.6-.3,7.2-.5,10.8-.9,18-1.8,36-2.6,54.1-.7,14.7-1.3,29.4-2,44.1-1,21.1-2.1,42.2-3.1,63.4-.7,14.7-1.3,29.4-2,44.1-1,21-2,41.9-3.1,62.9v3.6h29.5c-4.7-94.4-9.5-188.6-14.2-282.8.4,0,.9-.1,1.3-.2,14.3,94.3,28.5,188.7,42.8,283h31c-.2-.9-.4-1.7-.5-2.4-9.7-38-19.3-75.9-29-113.9-13.7-53.8-27.5-107.5-41.2-161.3-.5-1.9-.9-3.8-1.4-5.8.4-.1.8-.3,1.1-.4,14.1,38.6,28.3,77.2,42.4,115.8,20.2,55.4,40.5,110.7,60.7,166.1.6,1.7,1.4,2.2,3.1,2.2h30.5c.7,0,1.3,0,2.3,0-.4-1-.7-1.8-1.1-2.5-12.1-25-24.2-50-36.4-75-32.3-66.6-64.7-133.3-97-199.9-1.1-2.3-2.2-4.7-3.3-7,.3-.2.6-.4.9-.6,1.6,2.5,3.1,5,4.7,7.5,25.8,41.9,51.6,83.7,77.5,125.6,30.9,50,61.7,100.1,92.5,150.2.9,1.5,1.9,2,3.7,2h39.1c.7,0,1.3,0,2.4,0-3.4-4.4-6.5-8.5-9.6-12.7-41.5-54.3-83.1-108.7-124.6-163.1-27.2-35.6-54.4-71.1-81.6-106.7-.9-1.2-1.8-2.4-2.7-3.6l.9-.9c18.3,19.5,36.6,39.1,54.9,58.6,38.1,40.6,76.1,81.1,114.2,121.7,32.8,34.9,65.5,69.8,98.3,104.8,1.3,1.4,2.6,2,4.6,2,5.5,0,11,0,16.5,0v-37.7c-10.2-8.9-20.5-17.8-30.7-26.7-31.5-27.4-63-54.9-94.5-82.3-53.1-46.3-106.3-92.7-159.4-139-1-.9-2-1.7-2.9-2.5.2-.3.5-.7.7-1,2.4,1.7,4.7,3.4,7.1,5l110.1,77.8c44.9,31.8,89.8,63.5,134.7,95.3,11.6,8.2,23.3,16.4,35,24.6v-42.3c-.7-.4-1.4-.7-2-1.1-41.8-23.6-83.6-47.2-125.4-70.8-48.1-27.2-96.3-54.3-144.5-81.5-4.8-2.7-9.6-5.4-14.4-8,.2-.4.4-.8.5-1.2h0c37.1,16.2,74.2,32.4,111.3,48.6,53.6,23.4,107.1,46.8,160.7,70.1,4.5,2,9.1,3.8,13.7,5.7v-34.4c-95.2-30.2-190.4-60.5-285.5-90.8.1-.5.2-.9.3-1.4,3.1.8,6.3,1.5,9.5,2.1,26.5,5.5,53,11.1,79.5,16.6,25,5.2,50,10.4,75,15.6l79.5,16.5c13.9,2.9,27.8,5.8,41.8,8.8v-31.1c-1,0-2,0-3-.2-11.4-1.2-22.8-2.4-34.2-3.5-11.6-1.2-23.3-2.4-34.9-3.6-12.9-1.3-25.7-2.6-38.6-3.9-11.4-1.2-22.8-2.3-34.2-3.5-11.3-1.2-22.6-2.3-34-3.5-11.2-1.1-22.5-2.3-33.7-3.4-11.5-1.2-23.1-2.4-34.7-3.5-9.9-1-19.9-2.1-29.8-3.1-2.7-.3-5.4-.5-8-.8,0-.2,0-.5.1-.8,38.6-.3,77.1-.6,115.7-.9,40.8-.3,81.6-.6,122.3-.9,15.7-.1,31.3-.1,47-.2v-30.2c-10.9,1.1-21.7,2.3-32.6,3.4-12.5,1.3-25.1,2.7-37.7,4-10.8,1.1-21.7,2.3-32.6,3.4-11.1,1.2-22.2,2.4-33.3,3.5-12.3,1.3-24.6,2.6-37,3.9-12.5,1.3-24.9,2.7-37.4,4-10.9,1.2-21.9,2.3-32.8,3.4-11.2,1.2-22.3,2.4-33.5,3.6-2.8.3-5.5.6-8.3.9,0-.5,0-.9-.1-1.4.9-.1,1.9-.3,2.8-.5,26.7-5.6,53.4-11.3,80.1-16.9,26.9-5.7,53.7-11.4,80.6-17,32-6.8,64-13.6,96-20.3,8.5-1.8,17.1-3.5,25.7-5.3v-32.6c-.2,0-.5,0-.7.2-34.2,11.1-68.5,22.1-102.7,33.1-57.4,18.5-114.9,37-172.3,55.5-3.2,1-6.3,2.1-9.5,3.1,0-.4-.2-.9-.3-1.3,0,0,.2,0,.2-.1,34.9-15.3,69.7-30.7,104.6-46,46.9-20.6,93.7-41.2,140.5-61.8,13.4-5.9,26.8-11.7,40.2-17.6v-37.7c-.8.3-1.6.5-2.3.9-16.2,9.2-32.3,18.4-48.5,27.6-32.6,18.6-65.3,37.2-97.9,55.8-42,23.9-84,47.9-126,71.8-3.7,2.1-7.4,4.3-11.2,6.4-.2-.4-.4-.8-.5-1.2,26.6-19,53.3-38,80-57,35.5-25.3,71-50.7,106.5-76,26-18.5,51.9-37.1,77.9-55.6,7.3-5.2,14.7-10.3,22-15.5v-48.8c-.7.5-1.5.8-2.1,1.4-7.4,6.5-14.7,13-22,19.4h0Z"/>
      <path class="st0" d="M591.2,0c1.4,1.4,2.8,2.8,4.2,4.2V0h-4.2Z"/>
      <path class="st0" d="M-.2,0v4.2C1.2,2.9,2.6,1.5,4,0H-.2Z"/>
    </g>
  </g>
</svg>