<?xml version="1.0" encoding="UTF-8"?>
<svg id="Layer_1" xmlns="http://www.w3.org/2000/svg" version="1.1" viewBox="0 0 593.3 256.6">
  <!-- Generator: Adobe Illustrator 29.0.0, SVG Export Plug-In . SVG Version: 2.1.0 Build 186)  -->
  <defs>
    <style>
      .st0 {
        fill: #e4042c;
      }
    </style>
  </defs>
  <g id="_Слой_1" data-name="Слой_1">
    <g>
      <path class="st0" d="M48.2,160.8c1.1,2,2,3.8,2.9,5.6,6.5,12.2,13.1,24.5,19.5,36.7.5.9.4,2.2.5,3.2-1,.1-1.9.4-2.9.4-3.3-.1-6.7-.2-10-.6-1.2-.1-2.8-.8-3.5-1.8-10.6-14-21.1-28.1-31.6-42.2-1.4-1.9-2.8-2.7-5.2-1.9-3.3,1.1-6.8,1.7-10.2,2.5-3.7.8-4.9.3-6-3.2-2.3-7.6-3.9-6.3,4.5-10.7,7.4-3.8,15.4-5.7,23.5-7.4,1.9-.4,3.7-1.3,6-2.1-2.7-2.4-5.4-2.4-8-2.7-3.1-.3-6.3-.3-9.5-.6-4.7-.5-7.1-4.5-4.7-8.5,1.8-2.8,4.2-5.8,7-7.2,7.3-3.4,14.8-7,22.6-8.6,12-2.5,23.7-1.6,34,6.6,8.7,6.9,16.3,14.9,23.4,23.4,3.9,4.7,7.5,9.5,11.2,14.3,4.5,5.7,10.8,8.8,17,12.2,12.5,6.8,25.5,5.9,38.7,2.8,4.7-1.1,9.4-2.2,14.1-3.2.9-.2,1.8-.5,3.1-.8-1.1-2.5-2-4.8-3.1-7.1-1.7-3.6-3.4-7.1-5.1-10.7-1.1-2.2-.5-4.2,1.8-4.9,3.5-1.1,7.1-1.7,10.7-2.5.8-.2,1.7-.1,2.9-.2-.3-2.8-.6-5.4-.9-7.8-6.1.4-11.8.7-17.6,1.1-2.7.2-4.1-.9-4.4-3.6-.3-2.7-1-5.4-1.3-8.1-.4-3,.4-4.2,3.4-4.8,5.6-1.1,11.2-2,16.9-3,.9-.2,1.8-.4,3-.6-.2-2-.4-3.9-.7-6.3-7.3,1.3-14.4,2.6-21.6,3.9-2,.4-4,1.4-6,1.8-1,.2-2.7,0-3.3-.8-6-7.1-11.8-14.2-17.5-21.4-1.2-1.5-.7-2.9,1-3.9,8.8-5.2,18.1-8.8,28.3-10.2,11.1-1.5,21.7.2,32,4.2,24.7,9.5,49.3,19,73.8,28.8,26.6,10.6,53.1,21.3,79.6,32.1,17.6,7.2,35.2,14.6,52.7,22,1.1.4,1.9,1.4,2.8,2.1-.1.3-.2.6-.3.9-8.8,1.7-17.6,3.6-26.5,5.2-16.7,3-33.5,5.9-50.2,8.9-16.1,2.8-32.2,5.7-48.4,8.5-18.6,3.3-37.2,6.6-55.9,9.9-1.1.2-2.3.3-3.4.6-3.7.9-6.8.3-9.5-2.7-2.6-2.9-5.6-5.6-8.5-8.2-.7-.6-2-1.1-2.9-1-23.7,3.9-47.4,8-71.2,12-7.8,1.3-15.6,2.4-23.4,3.6-3.3.5-5.7-2.3-4.8-5.5,1.2-4.4,2.1-5.9,4.8-7.7-4.7-2.8-9.3-5.5-13.8-8.4-9.7-6-19.4-12-29-18.2-6.5-4.2-14.5-6.1-21.4-4.5Z"/>
      <path class="st0" d="M120.8,251c-23,.4-47.3-2.5-71.2-8-4.9-1.1-9.3-2.7-12.3-7.2-4.5-6.9-2.4-14.5,5.4-17.3,6.3-2.3,13-3.5,19.7-2.4,8,1.2,16,2.3,23.7,4.5,13.5,3.9,27.2,3.7,40.9,2.7,15.5-1.1,31.1-1.5,46.5-2.9,16.7-1.5,33.3-4,49.9-6,12.2-1.5,24.4-3,36.6-4.4,14-1.6,28.1-3.1,42.1-4.6,7.8-.8,15.6-1.4,23.3-2.2,10-1,19.9-2.2,29.8-3.3,12-1.4,24.2-2.2,36.1-4.2,28.7-4.8,57.5-9.8,86-15.5,11.4-2.3,22.4-6.6,33.4-10.2,4.2-1.4,4.1-1.6,3.5-5.9-2.2-16-4.5-32-6.7-48-.5-4-2.7-6.2-6.5-6.9-4.4-.8-8.8-1.7-13.3-1.8-11.1-.2-22.3-.7-33.4.2-12.1,1-24.1,3.5-36.1,5.3-14.4,2.1-28.8,4-43.2,6.3-10.5,1.6-21,3.6-31.6,5.4-.9.2-1.9.2-2.7-.2-14.9-6.8-29.9-13.6-44.7-20.6-3.8-1.8-3.9-4.6-.4-7.1,1.8-1.3,3.7-2.4,5.7-3.4,16.5-8.2,32.9-16.7,49.6-24.5,9-4.2,18.4-3.1,27.8-.5,12.4,3.5,23.4,9.8,34.5,16,4.4,2.5,8.6,4.5,14.2,3.9,9.3-.9,18.6-.6,27.9-.7,12-.2,23.9-.3,35.8-.3,8.4,0,16.6,1.4,23.8,5.7,7,4.1,11.8,9.9,12.9,18.4,1.7,14,3.9,27.9,5.6,42,1,8.7,1.4,17.5,1.9,26.2.4,7.9-5.7,13.6-12.7,16-16,5.4-32.5,8.2-48.9,11.3-18.9,3.6-37.5,8.3-56.4,11.9-14,2.7-28,4.7-42.1,6.7-19.4,2.9-38.9,5.6-58.4,8.2-13.8,1.8-27.7,3.3-41.6,4.9-12.9,1.5-25.8,3.1-38.7,4.4-9.2,1-18.4,1.7-27.6,2.5-10.8.9-21.7,1.7-32.5,2.8-18,1.7-36,3.4-55.8,2.5ZM364.4,78.4c-.2.2-.4.4-.5.5.3.6.4,1.4.8,1.8,2.7,2.7,5.3,5.6,8.3,7.9,3,2.2,3.3,4.1,0,6.1-2.6,1.6-5.4,2.9-8,4.6-3.3,2.2-6.4,4.6-9.5,7.1-.6.5-.8,2.2-.5,2.9.4.7,1.8,1.2,2.7,1.1,14-1.9,27.2-6.6,40.4-11.6.6-.2,1.2-.6,2.2-1.1-11.1-8.6-24.1-12.9-36-19.2Z"/>
      <path class="st0" d="M533.1,39.1V12.8c0-.3,0-.6,0-.8-2.2-4.2.8-6,3.6-7.9,1.4-1,2.7-2.2,4.2-3.2,1.8-1.2,3.5-1.4,4.8.9,2.8,4.8,5.9,9.5,8.6,14.4,5.5,10.1,11,20.3,16.2,30.7,1.1,2.2,1.4,5.1,1.3,7.6-.3,6.9-1.1,13.8-1.6,20.7-.7,8.6-1.4,17.3-1.9,25.9-.1,2.1-1.1,3.2-3,3.2-4,.1-8.1.3-12.1-.1-1.6-.2-3.7-1.4-4.4-2.7-3.5-6.4-6.7-12.9-9.9-19.4-.7-1.4-1.1-3-1.8-4.4-4.7-8.6-4.8-17.9-4.3-27.3.2-3.8,0-7.5,0-11.3,0,0,.2,0,.3,0ZM555.5,49.3c2.2-3.4,1.4-6.4-.3-9.4-3.3-6-6.6-12-9.9-18-.7-1.3-1.5-2.5-2.3-3.9-.8,1.5-1.5,2.7-2.1,3.7,4.9,9.2,9.7,18.3,14.6,27.6Z"/>
      <path class="st0" d="M593,218.4c-.4,11.7-.7,23.3-1,35,0,1.7-.8,2.5-2.5,2.8-6.5,1.2-12.1-.3-16.8-5.1-2.3-2.3-3.5-4.8-4.5-7.8-3.9-11.7-7.5-23.6-12.2-35-2.1-5.3-3.2-10.1-2.8-15.8.6-9.3.2-18.6.1-27.9,0-3.3,1.1-5.5,4.4-6.9,3.9-1.7,7.6-4,11.3-6.2,3.4-2,5.2-1.7,6.7,2.1,3.9,10,7.6,20,11.3,30,1.2,3.2,2.1,6.5,3.5,9.6,2.5,5.5,3,11.3,2.6,17.2-.2,2.6,0,5.3,0,7.9,0,0,0,0-.1,0ZM575.3,235.5c0,0,.1,0,.2,0,0,1.4,0,2.8,0,4.2-.1,2.3,1.5,2.9,3.2,3,1.7.2,2.4-.8,2.5-2.6.3-6.1.9-12.2,1.2-18.4.2-4,.4-8.1.5-12.1.1-2.6-1.9-2.1-3.3-2.2-.6,0-1.8.8-1.8,1.4-.9,8.9-1.7,17.7-2.5,26.6Z"/>
      <path class="st0" d="M454.1,160c-.9,4.2-1.8,8.5-2.7,12.5-10.9,2.6-21.6,5.2-32.3,7.8-3.1.7-4.2-.2-4.3-3.4,0-.9,0-1.8,0-2.6,0-3.5.6-4.4,4-5.4,4.6-1.4,9.3-2.6,14-3.8,2.6-.6,3.6-2,3.1-4.7-1.9,0-3.9,0-5.8,0-3.3,0-4.5-1.9-2.8-4.8,2.3-4,4.8-8,7.2-12,.3-.4.5-.9.8-1.6-3.3-2.9-6.5-5.9-9.8-8.8-3.9-3.4-7.8-6.8-11.6-10.3-.7-.7-1.1-2-1.1-3s1.5-1,2.4-1.1c5.7-.6,11.4-1.1,17.1-1.4,1.2,0,2.7.6,3.7,1.4,3,2.4,5.8,5.1,8.9,8,2.2-3.9,4.4-7.4,6.2-11.1,1.4-2.9,3.2-4.2,6.5-3.8,3.4.4,6.8.4,10.3.5,2.5.1,2.9.7,2,3.1-2.9,7.6-5.7,15.3-8.7,22.8-.8,2.1-.6,3.4,1.1,4.9,5.9,5.4,11.7,10.9,17.4,16.5,1,1,1.9,2.7,1.7,3.9-.1.8-2.2,1.6-3.6,1.8-3.9.6-7.8,1-11.7,1.5-2.5.4-4.6.4-6.3-2-1.4-2-3.1-3.8-4.7-5.7-.3.2-.7.4-1.1.6Z"/>
      <path class="st0" d="M586.4,131.6c.4,4.5-1.6,7.3-5.2,9.6-10.6,6.7-21.1,13.6-33.5,16.6-3.6.9-4.2.6-4.7-3.1-2-13-4-26-6.1-38.9-.9-5.3,0-7.1,5.4-7.2,11.5-.2,23.1-.3,34.3,3.7,5,1.8,8.1,4.5,8.7,9.9.3,3.1.9,6.2,1.3,9.4ZM549.3,128.6h18c.2-1.9.4-3.7.7-6.2-5.1,0-9.7,0-14.3,0-5.2.1-5.7.9-4.3,6.2Z"/>
    </g>
  </g>
</svg>