<?xml version="1.0" encoding="UTF-8"?>
<svg id="Layer_1" xmlns="http://www.w3.org/2000/svg" version="1.1" viewBox="0 0 512 512">
  <!-- Generator: Adobe Illustrator 29.0.0, SVG Export Plug-In . SVG Version: 2.1.0 Build 186)  -->
  <defs>
    <style>
      .st0 {
        fill: #e4002a;
      }

      .st1 {
        fill: #e4042c;
      }
    </style>
  </defs>
  <path class="st1" d="M289.2,289.2c6.6-6.5,10.9-14.6,12.8-23.5l78.4-27.1c2-.7,3.7-2,4.9-3.7l124.9-180c2.8-4,2.3-9.4-1.1-12.8L470,3c-3.9-3.9-10.2-3.9-14.1,0l-47.4,47.4C307.1-25,165-15,75,75s-27.1,30.5-37.7,47.8c-2.9,4.7-1.4,10.9,3.3,13.7,4.7,2.9,10.9,1.4,13.7-3.3h0c9.7-15.9,21.4-30.8,34.7-44.1C171.5,6.9,300.9-2.9,394.1,64.7l-24.4,24.4c-37.3-25.5-82.4-37.7-127.8-34.6-48.6,3.4-94.3,24.2-128.8,58.7s-17.9,19.7-25.3,30.8c-3.1,4.6-1.8,10.8,2.8,13.9,1.6,1.1,3.6,1.7,5.5,1.7,3.3,0,6.5-1.7,8.3-4.4,6.7-10,14.3-19.2,22.8-27.7,60.7-60.7,156.9-70.2,228-23.8l-29.1,29.1c-25.4-14.5-55.1-20.8-84.4-17.9-32.5,3.2-63.1,17.8-86.3,40.9-3.9,3.9-3.9,10.2,0,14.1,1.9,1.9,4.4,2.9,7.1,2.9s5.2-1.1,7.1-2.9c37.5-37.5,95.3-46.1,141.7-22.4l-62.4,62.4c-9.6,1.4-18.9,5.8-26.3,13.2-6.6,6.5-10.9,14.6-12.8,23.5l-78.4,27.1c-2,.7-3.7,2-4.9,3.7L1.8,457.3c-2.8,4-2.3,9.3,1.1,12.8l39,39c1.9,1.9,4.4,2.9,7.1,2.9s5.2-1.1,7.1-2.9l47.4-47.4c44,32.7,97.4,50.3,152.4,50.3s9-.1,13.5-.4c63.2-3.3,122.7-29.8,167.5-74.6s21.5-23.6,30.6-36.8c3.1-4.6,1.9-10.8-2.6-13.9-4.6-3.1-10.8-1.9-13.9,2.6-8.3,12.2-17.8,23.5-28.2,34-82.4,82.4-211.7,92.2-305,24.5l24.4-24.4c33.5,22.8,73.2,35,113.8,35s9.6-.2,14.5-.5c48.4-3.5,94-24.3,128.3-58.6,8-8,15.4-16.7,22-26,3.2-4.5,2.1-10.7-2.4-13.9-4.5-3.2-10.7-2.1-13.9,2.4-5.9,8.3-12.6,16.2-19.8,23.4-60.6,60.6-156.9,70.1-228,23.8l29.1-29.1c21.4,12.1,45.7,18.6,70.3,18.6s9.5-.2,14.3-.7c32.4-3.3,63-17.8,86-40.9,3.9-3.9,3.9-10.2,0-14.1s-10.2-3.9-14.1,0c-37.5,37.4-95.3,46-141.7,22.4l62.4-62.4c9.6-1.4,18.9-5.8,26.3-13.2h-.1ZM462.9,24.2l26.1,26.1-118.2,170.4-69.1,23.9c-2-8.2-6.3-15.6-12.4-21.7-4.3-4.3-9.4-7.7-15-10L462.9,24.2h0ZM49.1,487.9l-26.1-26.1,118.2-170.4,69.1-23.9c2,8.2,6.3,15.6,12.4,21.7,4.3,4.3,9.4,7.7,15,10L49.1,487.9ZM236.9,275c-5.1-5.1-7.9-11.8-7.9-18.9s0-.3,0-.4c.2-.8.2-1.6.1-2.5.6-6.1,3.3-11.7,7.7-16.1,5.3-5.2,12.2-7.9,19.1-7.9s13.8,2.6,19.1,7.9,7.9,11.8,7.9,18.9,0,.3,0,.4c-.2.8-.2,1.6-.1,2.5-.6,6.1-3.3,11.7-7.7,16.1-10.5,10.5-27.7,10.5-38.2,0h0Z"/>
  <path class="st0" d="M483.6,350.1c-5-2.3-11-.2-13.3,4.8v.2c-2.4,5-.2,11,4.8,13.3,1.4.6,2.8.9,4.2.9,3.8,0,7.4-2.2,9.1-5.8h0c2.3-5.1.2-11.1-4.8-13.4h0ZM32.6,152.6c-5.1-2.2-11,.2-13.1,5.3v.2c-2.2,5.1.3,10.9,5.4,13,1.2.5,2.5.7,3.8.8,3.9,0,7.7-2.3,9.3-6.2,2.1-5.1-.2-10.9-5.3-13.1h0Z"/>
</svg>